<?xml version="1.0" encoding="iso-8859-1"?>
<!-- Uploaded to: SVG Repo, www.svgrepo.com, Generator: SVG Repo Mixer Tools -->
<!DOCTYPE svg PUBLIC "-//W3C//DTD SVG 1.1//EN" "http://www.w3.org/Graphics/SVG/1.1/DTD/svg11.dtd">
<svg fill="#000000" version="1.1" id="Capa_1" xmlns="http://www.w3.org/2000/svg" xmlns:xlink="http://www.w3.org/1999/xlink" 
	 width="800px" height="800px" viewBox="0 0 530.974 530.974"
	 xml:space="preserve">
<g>
	<g>
		<path fill='gold' d="M477.424,73.292c2.507-4.406,2.105-10.67-1.42-14.312L421.995,3.168c-3.525-3.645-9.023-3.437-12.595,0.162
			c-52.247,52.66-115.619,14.376-136.706-1.083c-4.088-2.999-10.333-2.996-14.421,0.003c-21.089,15.459-84.459,53.737-136.703,1.083
			C118-0.265,112.5-0.473,108.976,3.171L54.966,58.977c-3.525,3.645-3.926,9.905-1.419,14.312
			c12.001,21.096,38.146,84.444-10.655,177.694c-66.228,126.549,58.25,197.471,111.298,220.614
			c40.166,17.521,85.791,45.897,103.603,57.323c4.269,2.738,11.12,2.738,15.389,0c17.812-11.426,63.437-39.802,103.602-57.323
			c53.049-23.14,177.526-94.064,111.299-220.614C439.278,157.732,465.423,94.384,477.424,73.292z M455.885,341.192
			c-7.481,21.242-30.496,61.444-100.563,92.008c-30.812,13.442-66.005,35.334-79.704,44.122c-2.827,1.812-6.423,2.809-10.129,2.809
			c-3.706,0-7.301-0.997-10.128-2.809c-13.703-8.788-48.896-30.68-79.704-44.122c-70.068-30.563-93.083-70.766-100.564-92.008
			c-9.963-28.287-6.576-58.752,10.07-90.559c35.931-68.654,17.871-114.634,8.437-131.213c-3.721-6.542-2.772-15.064,2.258-20.263
			l42.108-43.513c2.736-2.828,6.38-4.385,10.257-4.385c3.92,0,7.647,1.579,10.49,4.443c12.307,12.405,26.585,18.693,42.436,18.693
			c0.003,0,0.003,0,0.006,0c23.896,0,45.857-14.21,54.19-20.318c5.688-4.167,14.603-4.167,20.287-0.003
			c8.336,6.111,30.298,20.321,54.184,20.321c0.003,0,0.003,0,0.007,0c15.856,0,30.138-6.291,42.441-18.693
			c2.843-2.867,6.567-4.446,10.49-4.446c3.88,0,7.521,1.558,10.26,4.385l42.108,43.516c5.031,5.196,5.982,13.718,2.259,20.26
			c-9.434,16.579-27.491,62.559,8.437,131.213C462.461,282.44,465.848,312.905,455.885,341.192z"/>
		<path fill='gold' d="M424.079,111.854c0.397-0.698,0.257-1.784,0.037-2.065l-41.46-42.843c-15.193,15.101-32.96,22.748-52.838,22.751
			c0,0-0.006,0-0.009,0c-27.384,0-51.368-14.584-63.229-23.281c-0.371-0.269-1.83-0.272-2.197,0.003
			c-11.857,8.69-35.842,23.274-63.235,23.277c-0.003,0-0.006,0-0.006,0c-19.877,0-37.647-7.653-52.831-22.751l-41.466,42.852
			c-0.211,0.27-0.352,1.358,0.046,2.056c10.673,18.764,31.246,70.542-8.179,145.874c-14.596,27.892-17.687,54.263-9.192,78.382
			c16.086,45.671,69.872,73.306,92.25,83.066c31.818,13.884,67.837,36.279,81.849,45.267c0.208,0.135,0.872,0.389,1.87,0.389
			c0.998,0,1.658-0.254,1.87-0.389c14.009-8.987,50.027-31.383,81.849-45.267c22.378-9.761,76.163-37.396,92.25-83.066
			c8.494-24.119,5.4-50.49-9.192-78.382C392.833,182.393,413.405,130.618,424.079,111.854z M373.877,227.702l-62.207,45.196
			l23.761,73.128c2.641,8.128-0.823,10.646-7.738,5.622l-62.207-45.193l-62.207,45.196c-6.916,5.024-10.38,2.506-7.739-5.621
			l23.761-73.128l-62.207-45.197c-6.916-5.024-5.591-9.097,2.956-9.097h76.892l23.761-73.128c2.641-8.13,6.924-8.13,9.566,0
			l23.761,73.128h76.892C379.467,218.605,380.792,222.678,373.877,227.702z"/>
	</g>
</g>
</svg>